<svg xmlns="http://www.w3.org/2000/svg" width="21" height="20" viewBox="0 0 21 20" fill="none">
  <path d="M6.99922 13.625C7.0649 13.6744 7.13968 13.7103 7.21926 13.7307C7.29885 13.7512 7.38169 13.7557 7.46303 13.7441C7.54437 13.7325 7.62263 13.705 7.69332 13.6631C7.76401 13.6212 7.82575 13.5658 7.875 13.5C8.25341 12.9955 8.74409 12.5859 9.3082 12.3039C9.8723 12.0218 10.4943 11.875 11.125 11.875C11.7557 11.875 12.3777 12.0218 12.9418 12.3039C13.5059 12.5859 13.9966 12.9955 14.375 13.5C14.4242 13.5657 14.4859 13.621 14.5566 13.6628C14.6272 13.7046 14.7054 13.7321 14.7866 13.7437C14.8679 13.7553 14.9506 13.7508 15.0301 13.7304C15.1096 13.7101 15.1843 13.6742 15.25 13.625C15.3157 13.5758 15.371 13.5141 15.4128 13.4434C15.4546 13.3728 15.4821 13.2946 15.4937 13.2134C15.5053 13.1321 15.5008 13.0494 15.4804 12.9699C15.4601 12.8904 15.4242 12.8157 15.375 12.75C14.8216 12.008 14.0836 11.4238 13.2344 11.0555C13.6998 10.6306 14.0258 10.0749 14.1697 9.4614C14.3137 8.84789 14.2688 8.2052 14.0409 7.61767C13.813 7.03014 13.4129 6.52523 12.8929 6.1692C12.373 5.81316 11.7575 5.62265 11.1273 5.62265C10.4972 5.62265 9.88173 5.81316 9.36178 6.1692C8.84182 6.52523 8.44166 7.03014 8.21379 7.61767C7.98593 8.2052 7.94102 8.84789 8.08495 9.4614C8.22888 10.0749 8.55493 10.6306 9.02031 11.0555C8.1694 11.4231 7.42972 12.0074 6.875 12.75C6.77546 12.8825 6.73263 13.0491 6.75592 13.2132C6.77922 13.3773 6.86673 13.5254 6.99922 13.625ZM9.25 8.75C9.25 8.37916 9.35997 8.01665 9.56599 7.70831C9.77202 7.39996 10.0649 7.15964 10.4075 7.01773C10.7501 6.87581 11.1271 6.83868 11.4908 6.91103C11.8545 6.98337 12.1886 7.16195 12.4508 7.42417C12.713 7.6864 12.8916 8.02049 12.964 8.38421C13.0363 8.74792 12.9992 9.12492 12.8573 9.46753C12.7154 9.81014 12.475 10.103 12.1667 10.309C11.8584 10.515 11.4958 10.625 11.125 10.625C10.6277 10.625 10.1508 10.4275 9.79917 10.0758C9.44754 9.72419 9.25 9.24728 9.25 8.75ZM16.75 1.875H5.5C5.16848 1.875 4.85054 2.0067 4.61612 2.24112C4.3817 2.47554 4.25 2.79348 4.25 3.125V5H3C2.83424 5 2.67527 5.06585 2.55806 5.18306C2.44085 5.30027 2.375 5.45924 2.375 5.625C2.375 5.79076 2.44085 5.94973 2.55806 6.06694C2.67527 6.18415 2.83424 6.25 3 6.25H4.25V9.375H3C2.83424 9.375 2.67527 9.44085 2.55806 9.55806C2.44085 9.67527 2.375 9.83424 2.375 10C2.375 10.1658 2.44085 10.3247 2.55806 10.4419C2.67527 10.5592 2.83424 10.625 3 10.625H4.25V13.75H3C2.83424 13.75 2.67527 13.8158 2.55806 13.9331C2.44085 14.0503 2.375 14.2092 2.375 14.375C2.375 14.5408 2.44085 14.6997 2.55806 14.8169C2.67527 14.9342 2.83424 15 3 15H4.25V16.875C4.25 17.2065 4.3817 17.5245 4.61612 17.7589C4.85054 17.9933 5.16848 18.125 5.5 18.125H16.75C17.0815 18.125 17.3995 17.9933 17.6339 17.7589C17.8683 17.5245 18 17.2065 18 16.875V3.125C18 2.79348 17.8683 2.47554 17.6339 2.24112C17.3995 2.0067 17.0815 1.875 16.75 1.875ZM16.75 16.875H5.5V3.125H16.75V16.875Z" fill="#3563E9"/>
</svg>