<svg xmlns="http://www.w3.org/2000/svg" width="21" height="20" viewBox="0 0 21 20" fill="none">
  <path d="M18.4422 4.55782L15.9422 2.05782C15.8841 1.99971 15.8152 1.95361 15.7393 1.92215C15.6635 1.8907 15.5821 1.87451 15.5 1.87451C15.4179 1.87451 15.3365 1.8907 15.2607 1.92215C15.1848 1.95361 15.1159 1.99971 15.0578 2.05782L7.55781 9.55782C7.49979 9.6159 7.45378 9.68485 7.42241 9.76072C7.39105 9.83659 7.37494 9.9179 7.375 10V12.5C7.375 12.6658 7.44085 12.8247 7.55806 12.9419C7.67527 13.0592 7.83424 13.125 8 13.125H10.5C10.5821 13.1251 10.6634 13.109 10.7393 13.0776C10.8152 13.0462 10.8841 13.0002 10.9422 12.9422L18.4422 5.44219C18.5003 5.38415 18.5464 5.31521 18.5779 5.23934C18.6093 5.16347 18.6255 5.08214 18.6255 5C18.6255 4.91787 18.6093 4.83654 18.5779 4.76067C18.5464 4.68479 18.5003 4.61586 18.4422 4.55782ZM10.2414 11.875H8.625V10.2586L13.625 5.2586L15.2414 6.875L10.2414 11.875ZM16.125 5.99141L14.5086 4.375L15.5 3.3836L17.1164 5L16.125 5.99141ZM18 10V16.25C18 16.5815 17.8683 16.8995 17.6339 17.1339C17.3995 17.3683 17.0815 17.5 16.75 17.5H4.25C3.91848 17.5 3.60054 17.3683 3.36612 17.1339C3.1317 16.8995 3 16.5815 3 16.25V3.75C3 3.41848 3.1317 3.10054 3.36612 2.86612C3.60054 2.6317 3.91848 2.5 4.25 2.5H10.5C10.6658 2.5 10.8247 2.56585 10.9419 2.68306C11.0592 2.80027 11.125 2.95924 11.125 3.125C11.125 3.29076 11.0592 3.44973 10.9419 3.56694C10.8247 3.68416 10.6658 3.75 10.5 3.75H4.25V16.25H16.75V10C16.75 9.83424 16.8158 9.67527 16.9331 9.55806C17.0503 9.44085 17.2092 9.375 17.375 9.375C17.5408 9.375 17.6997 9.44085 17.8169 9.55806C17.9342 9.67527 18 9.83424 18 10Z" fill="#F5F5F5"/>
</svg>