<svg xmlns="http://www.w3.org/2000/svg" width="20" height="20" viewBox="0 0 20 20" fill="none">
  <path d="M19.0625 6.25V11.875C19.0625 12.1236 18.9637 12.3621 18.7879 12.5379C18.6121 12.7137 18.3736 12.8125 18.125 12.8125C17.8763 12.8125 17.6379 12.7137 17.4621 12.5379C17.2862 12.3621 17.1875 12.1236 17.1875 11.875V8.51562L10.0382 15.6656C9.95115 15.753 9.84766 15.8224 9.7337 15.8697C9.61975 15.917 9.49757 15.9414 9.37418 15.9414C9.2508 15.9414 9.12862 15.917 9.01467 15.8697C8.90071 15.8224 8.79722 15.753 8.71012 15.6656L1.21012 8.16562C1.034 7.9895 0.935059 7.75063 0.935059 7.50156C0.935059 7.25249 1.034 7.01362 1.21012 6.8375C1.38624 6.66138 1.62511 6.56244 1.87418 6.56244C2.12326 6.56244 2.36213 6.66138 2.53825 6.8375L9.37497 13.6719L15.8593 7.1875H12.5C12.2513 7.1875 12.0129 7.08873 11.8371 6.91291C11.6612 6.7371 11.5625 6.49864 11.5625 6.25C11.5625 6.00136 11.6612 5.7629 11.8371 5.58709C12.0129 5.41127 12.2513 5.3125 12.5 5.3125H18.125C18.3736 5.3125 18.6121 5.41127 18.7879 5.58709C18.9637 5.7629 19.0625 6.00136 19.0625 6.25Z" fill="#F5F5F5"/>
</svg>