<svg xmlns="http://www.w3.org/2000/svg" width="21" height="20" viewBox="0 0 21 20" fill="none">
  <path d="M11.7711 3.58828C11.7923 3.50896 11.829 3.4346 11.8789 3.36944C11.9289 3.30429 11.9912 3.24961 12.0623 3.20855C12.1334 3.16749 12.2119 3.14083 12.2933 3.13012C12.3747 3.1194 12.4574 3.12483 12.5367 3.14609C13.6954 3.44839 14.7525 4.05409 15.5992 4.9008C16.4459 5.74752 17.0516 6.80463 17.3539 7.96328C17.3752 8.04258 17.3806 8.1253 17.3699 8.20671C17.3592 8.28811 17.3325 8.36661 17.2915 8.43771C17.2504 8.50881 17.1957 8.57112 17.1306 8.62108C17.0654 8.67105 16.991 8.70769 16.9117 8.7289C16.8589 8.74277 16.8046 8.74986 16.75 8.74999C16.6123 8.74999 16.4784 8.70449 16.3692 8.62057C16.26 8.53666 16.1816 8.41901 16.1461 8.28593C15.8995 7.34009 15.4052 6.47711 14.7141 5.78595C14.0229 5.09479 13.1599 4.60045 12.2141 4.3539C12.1347 4.33277 12.0602 4.29619 11.995 4.24626C11.9298 4.19634 11.875 4.13404 11.8339 4.06293C11.7927 3.99182 11.766 3.91329 11.7552 3.83185C11.7445 3.7504 11.7499 3.66763 11.7711 3.58828ZM11.5891 6.8539C12.6664 7.1414 13.3586 7.83359 13.6461 8.91093C13.6816 9.04401 13.76 9.16166 13.8692 9.24557C13.9784 9.32949 14.1123 9.37499 14.25 9.37499C14.3046 9.37486 14.3589 9.36777 14.4117 9.3539C14.491 9.33269 14.5654 9.29605 14.6306 9.24608C14.6957 9.19612 14.7504 9.13381 14.7915 9.06271C14.8325 8.99161 14.8592 8.91311 14.8699 8.83171C14.8806 8.7503 14.8752 8.66758 14.8539 8.58828C14.4539 7.0914 13.4086 6.04609 11.9117 5.64609C11.7516 5.6033 11.581 5.62589 11.4374 5.70889C11.2939 5.79189 11.1893 5.9285 11.1465 6.08867C11.1037 6.24883 11.1263 6.41944 11.2093 6.56294C11.2923 6.70645 11.4289 6.81111 11.5891 6.8539ZM17.9906 14.3031C17.8513 15.3617 17.3314 16.3334 16.5281 17.0368C15.7247 17.7401 14.6927 18.1269 13.625 18.125C7.42188 18.125 2.37501 13.0781 2.37501 6.87499C2.37309 5.80725 2.75992 4.77532 3.46324 3.97194C4.16655 3.16856 5.13826 2.64867 6.19688 2.50937C6.46458 2.47668 6.73567 2.53145 6.96968 2.66549C7.2037 2.79954 7.38809 3.00567 7.49532 3.25312L9.14532 6.93671V6.94609C9.22742 7.13551 9.26133 7.34231 9.24401 7.54802C9.2267 7.75374 9.1587 7.95196 9.0461 8.12499C9.03204 8.14609 9.01719 8.16562 9.00157 8.18515L7.37501 10.1133C7.96016 11.3023 9.20391 12.5352 10.4086 13.1219L12.3102 11.5039C12.3288 11.4882 12.3484 11.4736 12.3688 11.4602C12.5416 11.3448 12.7405 11.2745 12.9475 11.2554C13.1544 11.2363 13.3628 11.2691 13.5539 11.3508L13.5641 11.3555L17.2445 13.0047C17.4924 13.1115 17.6991 13.2958 17.8335 13.5298C17.968 13.7639 18.0231 14.0351 17.9906 14.3031ZM16.75 14.1469C16.75 14.1469 16.7445 14.1469 16.7414 14.1469L13.0695 12.5023L11.1672 14.1203C11.1487 14.1359 11.1294 14.1505 11.1094 14.1641C10.9295 14.2841 10.7216 14.3554 10.5059 14.371C10.2902 14.3866 10.0742 14.346 9.87891 14.2531C8.41563 13.5461 6.95704 12.0984 6.24923 10.6508C6.1555 10.4569 6.11344 10.2421 6.12713 10.0272C6.14082 9.81233 6.20978 9.60462 6.32735 9.42421C6.3406 9.40303 6.35549 9.38292 6.37188 9.36406L8.00001 7.43359L6.35938 3.76171C6.35907 3.7586 6.35907 3.75546 6.35938 3.75234C5.60177 3.85117 4.90616 4.22278 4.40283 4.79758C3.8995 5.37239 3.62296 6.11097 3.62501 6.87499C3.6279 9.52627 4.6824 12.0681 6.55714 13.9429C8.43187 15.8176 10.9737 16.8721 13.625 16.875C14.3886 16.8776 15.1269 16.602 15.7021 16.0998C16.2772 15.5976 16.6497 14.903 16.75 14.1461V14.1469Z" fill="#3563E9"/>
</svg>