<svg width="136" height="52" viewBox="0 0 136 52" fill="none" xmlns="http://www.w3.org/2000/svg">
<path d="M14.832 42C13.992 42 13.296 41.784 12.744 41.352C12.216 40.896 11.856 40.332 11.664 39.66C11.472 38.988 11.352 38.244 11.304 37.428C11.256 36.588 11.232 35.748 11.232 34.908C11.256 34.044 11.256 33.252 11.232 32.532C11.208 31.812 11.136 31.236 11.016 30.804C10.896 30.372 10.668 30.156 10.332 30.156C9.852 30.156 9.516 30.36 9.324 30.768C9.132 31.152 9.036 31.68 9.036 32.352C9.036 33 9.072 33.708 9.144 34.476C9.24 35.244 9.336 36.012 9.432 36.78C9.528 37.524 9.576 38.184 9.576 38.76C9.576 39.96 9.3 40.788 8.748 41.244C8.22 41.7 7.488 41.928 6.552 41.928C5.616 41.928 4.788 41.544 4.068 40.776C3.372 39.984 2.784 38.976 2.304 37.752C1.848 36.504 1.5 35.16 1.26 33.72C1.02 32.28 0.9 30.912 0.9 29.616C0.9 28.032 1.068 26.496 1.404 25.008C1.764 23.52 2.292 22.188 2.988 21.012C3.708 19.836 4.596 18.9 5.652 18.204C6.708 17.508 7.956 17.16 9.396 17.16C10.524 17.16 11.46 17.412 12.204 17.916C12.948 18.396 13.536 19.008 13.968 19.752C14.424 20.496 14.736 21.252 14.904 22.02C15.072 21.252 15.372 20.496 15.804 19.752C16.236 19.008 16.824 18.396 17.568 17.916C18.312 17.412 19.236 17.16 20.34 17.16C22.164 17.16 23.712 17.724 24.984 18.852C26.28 19.98 27.264 21.54 27.936 23.532C28.608 25.5 28.944 27.792 28.944 30.408C28.944 31.632 28.812 32.928 28.548 34.296C28.284 35.64 27.9 36.9 27.396 38.076C26.916 39.228 26.328 40.176 25.632 40.92C24.936 41.64 24.144 42 23.256 42C22.296 42 21.54 41.76 20.988 41.28C20.436 40.8 20.16 39.96 20.16 38.76C20.16 38.184 20.208 37.524 20.304 36.78C20.4 36.012 20.496 35.244 20.592 34.476C20.688 33.708 20.736 33 20.736 32.352C20.736 31.68 20.64 31.152 20.448 30.768C20.28 30.36 19.956 30.156 19.476 30.156C19.14 30.156 18.9 30.372 18.756 30.804C18.636 31.236 18.552 31.812 18.504 32.532C18.48 33.228 18.468 34.008 18.468 34.872C18.468 35.712 18.444 36.552 18.396 37.392C18.372 38.232 18.264 38.988 18.072 39.66C17.904 40.332 17.544 40.896 16.992 41.352C16.44 41.784 15.72 42 14.832 42ZM35.6721 42.036C34.5921 42.036 33.7161 41.688 33.0441 40.992C32.3721 40.272 31.8561 39.324 31.4961 38.148C31.1361 36.948 30.8961 35.64 30.7761 34.224C30.6561 32.808 30.5961 31.404 30.5961 30.012C30.5961 28.38 30.8121 26.784 31.2441 25.224C31.7001 23.664 32.3841 22.26 33.2961 21.012C34.2321 19.74 35.4081 18.732 36.8241 17.988C38.2401 17.244 39.9201 16.872 41.8641 16.872C43.8321 16.872 45.6081 17.28 47.1921 18.096C48.8001 18.912 50.0841 20.076 51.0441 21.588C52.0041 23.1 52.4841 24.9 52.4841 26.988C52.4841 28.86 52.1961 30.468 51.6201 31.812C51.0441 33.156 50.2641 34.26 49.2801 35.124C48.3201 35.964 47.2401 36.588 46.0401 36.996C44.8641 37.404 43.6641 37.596 42.4401 37.572C41.2161 37.524 40.0761 37.284 39.0201 36.852C39.1401 37.428 39.2001 38.016 39.2001 38.616C39.2241 39.216 39.1281 39.78 38.9121 40.308C38.7201 40.812 38.3601 41.232 37.8321 41.568C37.3281 41.88 36.6081 42.036 35.6721 42.036ZM42.2241 31.956C43.0881 31.956 43.8321 31.644 44.4561 31.02C45.1041 30.372 45.4281 29.628 45.4281 28.788C45.4281 27.924 45.1041 27.18 44.4561 26.556C43.8321 25.908 43.0881 25.584 42.2241 25.584C41.3601 25.584 40.6041 25.908 39.9561 26.556C39.3321 27.18 39.0201 27.924 39.0201 28.788C39.0201 29.628 39.3321 30.372 39.9561 31.02C40.6041 31.644 41.3601 31.956 42.2241 31.956ZM62.8696 42.036C61.7176 42.036 60.5776 41.916 59.4496 41.676C58.3216 41.412 57.3016 41.052 56.3896 40.596C55.4776 40.14 54.7456 39.588 54.1936 38.94C53.6656 38.292 53.4016 37.56 53.4016 36.744C53.4016 35.736 53.7016 34.956 54.3016 34.404C54.9256 33.828 55.6816 33.54 56.5696 33.54C57.3856 33.54 58.0576 33.672 58.5856 33.936C59.1136 34.176 59.5936 34.428 60.0256 34.692C60.4816 34.932 60.9616 35.052 61.4656 35.052C62.2576 35.052 62.6536 34.74 62.6536 34.116C62.6536 33.804 62.3776 33.528 61.8256 33.288C61.2736 33.048 60.5656 32.772 59.7016 32.46C58.8376 32.124 57.9376 31.68 57.0016 31.128C55.6096 30.288 54.6616 29.388 54.1576 28.428C53.6536 27.444 53.4016 26.256 53.4016 24.864C53.4016 23.448 53.8456 22.128 54.7336 20.904C55.6216 19.68 56.8216 18.696 58.3336 17.952C59.8456 17.208 61.5376 16.836 63.4096 16.836C65.2096 16.836 66.8416 17.112 68.3056 17.664C69.7696 18.216 70.9216 18.96 71.7616 19.896C72.6256 20.808 73.0576 21.852 73.0576 23.028C73.0576 23.988 72.8536 24.756 72.4456 25.332C72.0616 25.908 71.5696 26.328 70.9696 26.592C70.3936 26.856 69.8296 26.988 69.2776 26.988C68.4616 26.988 67.8496 26.94 67.4416 26.844C67.0336 26.748 66.7096 26.652 66.4696 26.556C66.2536 26.436 66.0136 26.328 65.7496 26.232C65.5096 26.136 65.1376 26.088 64.6336 26.088C64.3456 26.088 64.0576 26.184 63.7696 26.376C63.4816 26.568 63.3376 26.856 63.3376 27.24C63.3376 27.6 63.5896 27.888 64.0936 28.104C64.6216 28.296 65.1736 28.5 65.7496 28.716C67.8856 29.484 69.5056 30.396 70.6096 31.452C71.7136 32.484 72.2656 33.852 72.2656 35.556C72.2656 37.596 71.4376 39.192 69.7816 40.344C68.1496 41.472 65.8456 42.036 62.8696 42.036Z" fill="#3563E9"/>
<path d="M80.52 40.66C79.72 40.66 79.1033 40.4367 78.67 39.99C78.2433 39.5433 78.03 38.9 78.03 38.06V31.86H76.81C76.7033 31.86 76.6133 31.83 76.54 31.77C76.4667 31.7033 76.43 31.6033 76.43 31.47V30.76L78.09 30.55L78.5 27.42C78.52 27.32 78.5633 27.24 78.63 27.18C78.7033 27.1133 78.7967 27.08 78.91 27.08H79.81V30.57H82.74V31.86H79.81V37.94C79.81 38.3667 79.9133 38.6833 80.12 38.89C80.3267 39.0967 80.5933 39.2 80.92 39.2C81.1067 39.2 81.2667 39.1767 81.4 39.13C81.54 39.0767 81.66 39.02 81.76 38.96C81.86 38.9 81.9433 38.8467 82.01 38.8C82.0833 38.7467 82.1467 38.72 82.2 38.72C82.2933 38.72 82.3767 38.7767 82.45 38.89L82.97 39.74C82.6633 40.0267 82.2933 40.2533 81.86 40.42C81.4267 40.58 80.98 40.66 80.52 40.66ZM86.468 32.4C86.788 31.7067 87.1813 31.1667 87.648 30.78C88.1146 30.3867 88.6846 30.19 89.358 30.19C89.5713 30.19 89.7746 30.2133 89.968 30.26C90.168 30.3067 90.3446 30.38 90.498 30.48L90.368 31.81C90.328 31.9767 90.228 32.06 90.068 32.06C89.9746 32.06 89.838 32.04 89.658 32C89.478 31.96 89.2746 31.94 89.048 31.94C88.728 31.94 88.4413 31.9867 88.188 32.08C87.9413 32.1733 87.718 32.3133 87.518 32.5C87.3246 32.68 87.148 32.9067 86.988 33.18C86.8346 33.4467 86.6946 33.7533 86.568 34.1V40.5H84.778V30.37H85.798C85.9913 30.37 86.1246 30.4067 86.198 30.48C86.2713 30.5533 86.3213 30.68 86.348 30.86L86.468 32.4ZM97.5969 35.94C96.7769 35.9667 96.0769 36.0333 95.4969 36.14C94.9235 36.24 94.4535 36.3733 94.0869 36.54C93.7269 36.7067 93.4635 36.9033 93.2969 37.13C93.1369 37.3567 93.0569 37.61 93.0569 37.89C93.0569 38.1567 93.1002 38.3867 93.1869 38.58C93.2735 38.7733 93.3902 38.9333 93.5369 39.06C93.6902 39.18 93.8669 39.27 94.0669 39.33C94.2735 39.3833 94.4935 39.41 94.7269 39.41C95.0402 39.41 95.3269 39.38 95.5869 39.32C95.8469 39.2533 96.0902 39.16 96.3169 39.04C96.5502 38.92 96.7702 38.7767 96.9769 38.61C97.1902 38.4433 97.3969 38.2533 97.5969 38.04V35.94ZM91.8469 31.8C92.4069 31.26 93.0102 30.8567 93.6569 30.59C94.3035 30.3233 95.0202 30.19 95.8069 30.19C96.3735 30.19 96.8769 30.2833 97.3169 30.47C97.7569 30.6567 98.1269 30.9167 98.4269 31.25C98.7269 31.5833 98.9535 31.9867 99.1069 32.46C99.2602 32.9333 99.3369 33.4533 99.3369 34.02V40.5H98.5469C98.3735 40.5 98.2402 40.4733 98.1469 40.42C98.0535 40.36 97.9802 40.2467 97.9269 40.08L97.7269 39.12C97.4602 39.3667 97.2002 39.5867 96.9469 39.78C96.6935 39.9667 96.4269 40.1267 96.1469 40.26C95.8669 40.3867 95.5669 40.4833 95.2469 40.55C94.9335 40.6233 94.5835 40.66 94.1969 40.66C93.8035 40.66 93.4335 40.6067 93.0869 40.5C92.7402 40.3867 92.4369 40.22 92.1769 40C91.9235 39.78 91.7202 39.5033 91.5669 39.17C91.4202 38.83 91.3469 38.43 91.3469 37.97C91.3469 37.57 91.4569 37.1867 91.6769 36.82C91.8969 36.4467 92.2535 36.1167 92.7469 35.83C93.2402 35.5433 93.8835 35.31 94.6769 35.13C95.4702 34.9433 96.4435 34.8367 97.5969 34.81V34.02C97.5969 33.2333 97.4269 32.64 97.0869 32.24C96.7469 31.8333 96.2502 31.63 95.5969 31.63C95.1569 31.63 94.7869 31.6867 94.4869 31.8C94.1935 31.9067 93.9369 32.03 93.7169 32.17C93.5035 32.3033 93.3169 32.4267 93.1569 32.54C93.0035 32.6467 92.8502 32.7 92.6969 32.7C92.5769 32.7 92.4735 32.67 92.3869 32.61C92.3002 32.5433 92.2269 32.4633 92.1669 32.37L91.8469 31.8ZM110.713 30.37L106.583 40.5H104.983L100.853 30.37H102.303C102.45 30.37 102.57 30.4067 102.663 30.48C102.757 30.5533 102.82 30.64 102.853 30.74L105.423 37.26C105.503 37.5067 105.573 37.7467 105.633 37.98C105.693 38.2133 105.75 38.4467 105.803 38.68C105.857 38.4467 105.913 38.2133 105.973 37.98C106.033 37.7467 106.107 37.5067 106.193 37.26L108.793 30.74C108.833 30.6333 108.9 30.5467 108.993 30.48C109.087 30.4067 109.197 30.37 109.323 30.37H110.713ZM119.052 34.33C119.052 33.9167 118.992 33.54 118.872 33.2C118.759 32.8533 118.589 32.5567 118.362 32.31C118.142 32.0567 117.872 31.8633 117.552 31.73C117.232 31.59 116.869 31.52 116.462 31.52C115.609 31.52 114.932 31.77 114.432 32.27C113.939 32.7633 113.632 33.45 113.512 34.33H119.052ZM120.492 39.08C120.272 39.3467 120.009 39.58 119.702 39.78C119.396 39.9733 119.066 40.1333 118.712 40.26C118.366 40.3867 118.006 40.48 117.632 40.54C117.259 40.6067 116.889 40.64 116.522 40.64C115.822 40.64 115.176 40.5233 114.582 40.29C113.996 40.05 113.486 39.7033 113.052 39.25C112.626 38.79 112.292 38.2233 112.052 37.55C111.812 36.8767 111.692 36.1033 111.692 35.23C111.692 34.5233 111.799 33.8633 112.012 33.25C112.232 32.6367 112.546 32.1067 112.952 31.66C113.359 31.2067 113.856 30.8533 114.442 30.6C115.029 30.34 115.689 30.21 116.422 30.21C117.029 30.21 117.589 30.3133 118.102 30.52C118.622 30.72 119.069 31.0133 119.442 31.4C119.822 31.78 120.119 32.2533 120.332 32.82C120.546 33.38 120.652 34.02 120.652 34.74C120.652 35.02 120.622 35.2067 120.562 35.3C120.502 35.3933 120.389 35.44 120.222 35.44H113.452C113.472 36.08 113.559 36.6367 113.712 37.11C113.872 37.5833 114.092 37.98 114.372 38.3C114.652 38.6133 114.986 38.85 115.372 39.01C115.759 39.1633 116.192 39.24 116.672 39.24C117.119 39.24 117.502 39.19 117.822 39.09C118.149 38.9833 118.429 38.87 118.662 38.75C118.896 38.63 119.089 38.52 119.242 38.42C119.402 38.3133 119.539 38.26 119.652 38.26C119.799 38.26 119.912 38.3167 119.992 38.43L120.492 39.08ZM124.879 25.77V40.5H123.099V25.77H124.879ZM133.865 32.04C133.785 32.1867 133.662 32.26 133.495 32.26C133.395 32.26 133.282 32.2233 133.155 32.15C133.029 32.0767 132.872 31.9967 132.685 31.91C132.505 31.8167 132.289 31.7333 132.035 31.66C131.782 31.58 131.482 31.54 131.135 31.54C130.835 31.54 130.565 31.58 130.325 31.66C130.085 31.7333 129.879 31.8367 129.705 31.97C129.539 32.1033 129.409 32.26 129.315 32.44C129.229 32.6133 129.185 32.8033 129.185 33.01C129.185 33.27 129.259 33.4867 129.405 33.66C129.559 33.8333 129.759 33.9833 130.005 34.11C130.252 34.2367 130.532 34.35 130.845 34.45C131.159 34.5433 131.479 34.6467 131.805 34.76C132.139 34.8667 132.462 34.9867 132.775 35.12C133.089 35.2533 133.369 35.42 133.615 35.62C133.862 35.82 134.059 36.0667 134.205 36.36C134.359 36.6467 134.435 36.9933 134.435 37.4C134.435 37.8667 134.352 38.3 134.185 38.7C134.019 39.0933 133.772 39.4367 133.445 39.73C133.119 40.0167 132.719 40.2433 132.245 40.41C131.772 40.5767 131.225 40.66 130.605 40.66C129.899 40.66 129.259 40.5467 128.685 40.32C128.112 40.0867 127.625 39.79 127.225 39.43L127.645 38.75C127.699 38.6633 127.762 38.5967 127.835 38.55C127.909 38.5033 128.002 38.48 128.115 38.48C128.235 38.48 128.362 38.5267 128.495 38.62C128.629 38.7133 128.789 38.8167 128.975 38.93C129.169 39.0433 129.402 39.1467 129.675 39.24C129.949 39.3333 130.289 39.38 130.695 39.38C131.042 39.38 131.345 39.3367 131.605 39.25C131.865 39.1567 132.082 39.0333 132.255 38.88C132.429 38.7267 132.555 38.55 132.635 38.35C132.722 38.15 132.765 37.9367 132.765 37.71C132.765 37.43 132.689 37.2 132.535 37.02C132.389 36.8333 132.192 36.6767 131.945 36.55C131.699 36.4167 131.415 36.3033 131.095 36.21C130.782 36.11 130.459 36.0067 130.125 35.9C129.799 35.7933 129.475 35.6733 129.155 35.54C128.842 35.4 128.562 35.2267 128.315 35.02C128.069 34.8133 127.869 34.56 127.715 34.26C127.569 33.9533 127.495 33.5833 127.495 33.15C127.495 32.7633 127.575 32.3933 127.735 32.04C127.895 31.68 128.129 31.3667 128.435 31.1C128.742 30.8267 129.119 30.61 129.565 30.45C130.012 30.29 130.522 30.21 131.095 30.21C131.762 30.21 132.359 30.3167 132.885 30.53C133.419 30.7367 133.879 31.0233 134.265 31.39L133.865 32.04Z" fill="#3563E9"/>
</svg>
