<svg xmlns="http://www.w3.org/2000/svg" width="19" height="16" viewBox="0 0 19 16" fill="none">
  <path d="M15 6.11899C15 6.25686 14.9415 6.38908 14.8373 6.48657C14.7331 6.58406 14.5918 6.63883 14.4444 6.63883H12.2118C12.2181 6.7246 12.2222 6.81102 12.2222 6.89874C12.2209 7.93238 11.7815 8.92334 11.0004 9.65424C10.2193 10.3851 9.16023 10.7963 8.05556 10.7975H6.99236L12.0403 15.0913C12.0953 15.137 12.14 15.1924 12.172 15.2543C12.2039 15.3163 12.2224 15.3836 12.2263 15.4522C12.2303 15.5209 12.2196 15.5897 12.195 15.6545C12.1703 15.7193 12.1322 15.7789 12.0827 15.8298C12.0333 15.8807 11.9735 15.9219 11.9069 15.951C11.8404 15.9802 11.7682 15.9967 11.6948 15.9995C11.6213 16.0024 11.548 15.9916 11.479 15.9678C11.4101 15.9439 11.3469 15.9075 11.2931 15.8607L5.18194 10.6623C5.09897 10.5918 5.04076 10.4993 5.01496 10.3972C4.98916 10.2951 4.99699 10.1881 5.03742 10.0902C5.07784 9.99238 5.14897 9.90826 5.24144 9.84892C5.33392 9.78959 5.44343 9.75783 5.55556 9.75782H8.05556C8.86566 9.75696 9.64232 9.45546 10.2151 8.91947C10.788 8.38347 11.1102 7.65675 11.1111 6.89874C11.1111 6.81102 11.1063 6.7246 11.0979 6.63883H5.55556C5.40821 6.63883 5.26691 6.58406 5.16272 6.48657C5.05853 6.38908 5 6.25686 5 6.11899C5 5.98113 5.05853 5.8489 5.16272 5.75142C5.26691 5.65393 5.40821 5.59916 5.55556 5.59916H10.7757C10.5198 5.12999 10.1304 4.73607 9.6504 4.46088C9.1704 4.18569 8.61849 4.03993 8.05556 4.03966H5.55556C5.40821 4.03966 5.26691 3.9849 5.16272 3.88741C5.05853 3.78992 5 3.6577 5 3.51983C5 3.38196 5.05853 3.24974 5.16272 3.15226C5.26691 3.05477 5.40821 3 5.55556 3H14.4444C14.5918 3 14.7331 3.05477 14.8373 3.15226C14.9415 3.24974 15 3.38196 15 3.51983C15 3.6577 14.9415 3.78992 14.8373 3.88741C14.7331 3.9849 14.5918 4.03966 14.4444 4.03966H10.8847C11.3803 4.46874 11.7573 5.00387 11.9833 5.59916H14.4444C14.5918 5.59916 14.7331 5.65393 14.8373 5.75142C14.9415 5.8489 15 5.98113 15 6.11899Z" fill="#3563E9"/>
</svg>