<svg xmlns="http://www.w3.org/2000/svg" width="20" height="24" viewBox="0 0 20 24" fill="none">
  <g clip-path="url(#clip0_58_2777)">
    <path d="M18.75 10.5H16.5086L13.125 6.4397C13.0093 6.2998 12.8717 6.18889 12.72 6.11341C12.5683 6.03792 12.4056 5.99938 12.2414 6.00001H3.45937C3.25406 6.00046 3.052 6.0616 2.87104 6.17802C2.69009 6.29444 2.53583 6.46256 2.42188 6.66751L0.104688 10.8338C0.036603 10.9572 0.000203795 11.102 0 11.25L0 15.75C0 16.1478 0.131696 16.5294 0.366117 16.8107C0.600537 17.092 0.918479 17.25 1.25 17.25H2.57812C2.71581 17.8953 3.02856 18.4673 3.46707 18.8757C3.90557 19.2842 4.44489 19.5059 5 19.5059C5.55511 19.5059 6.09443 19.2842 6.53293 18.8757C6.97144 18.4673 7.28419 17.8953 7.42188 17.25H12.5781C12.7158 17.8953 13.0286 18.4673 13.4671 18.8757C13.9056 19.2842 14.4449 19.5059 15 19.5059C15.5551 19.5059 16.0944 19.2842 16.5329 18.8757C16.9714 18.4673 17.2842 17.8953 17.4219 17.25H18.75C19.0815 17.25 19.3995 17.092 19.6339 16.8107C19.8683 16.5294 20 16.1478 20 15.75V12C20 11.6022 19.8683 11.2207 19.6339 10.9393C19.3995 10.658 19.0815 10.5 18.75 10.5ZM3.45937 7.50001H12.2414L14.7414 10.5H1.79688L3.45937 7.50001ZM5 18C4.75277 18 4.5111 17.912 4.30554 17.7472C4.09998 17.5824 3.93976 17.3481 3.84515 17.074C3.75054 16.7999 3.72579 16.4983 3.77402 16.2074C3.82225 15.9164 3.9413 15.6491 4.11612 15.4393C4.29093 15.2296 4.51366 15.0867 4.75614 15.0288C4.99861 14.971 5.24995 15.0007 5.47835 15.1142C5.70676 15.2277 5.90199 15.42 6.03934 15.6667C6.17669 15.9133 6.25 16.2033 6.25 16.5C6.25 16.8978 6.1183 17.2794 5.88388 17.5607C5.64946 17.842 5.33152 18 5 18ZM15 18C14.7528 18 14.5111 17.912 14.3055 17.7472C14.1 17.5824 13.9398 17.3481 13.8451 17.074C13.7505 16.7999 13.7258 16.4983 13.774 16.2074C13.8222 15.9164 13.9413 15.6491 14.1161 15.4393C14.2909 15.2296 14.5137 15.0867 14.7561 15.0288C14.9986 14.971 15.2499 15.0007 15.4784 15.1142C15.7068 15.2277 15.902 15.42 16.0393 15.6667C16.1767 15.9133 16.25 16.2033 16.25 16.5C16.25 16.8978 16.1183 17.2794 15.8839 17.5607C15.6495 17.842 15.3315 18 15 18ZM18.75 15.75H17.4219C17.2842 15.1047 16.9714 14.5327 16.5329 14.1243C16.0944 13.7158 15.5551 13.4941 15 13.4941C14.4449 13.4941 13.9056 13.7158 13.4671 14.1243C13.0286 14.5327 12.7158 15.1047 12.5781 15.75H7.42188C7.28419 15.1047 6.97144 14.5327 6.53293 14.1243C6.09443 13.7158 5.55511 13.4941 5 13.4941C4.44489 13.4941 3.90557 13.7158 3.46707 14.1243C3.02856 14.5327 2.71581 15.1047 2.57812 15.75H1.25V12H18.75V15.75Z" fill="#424242"/>
  </g>
  <defs>
    <clipPath id="clip0_58_2777">
      <rect width="20" height="24" fill="white"/>
    </clipPath>
  </defs>
</svg>